<mxfile host="app.diagrams.net" agent="Mozilla/5.0 (Windows NT 10.0; Win64; x64; rv:136.0) Gecko/20100101 Firefox/136.0" version="26.1.1">
  <diagram name="Page-1" id="03018318-947c-dd8e-b7a3-06fadd420f32">
    <mxGraphModel dx="2267" dy="1469" grid="1" gridSize="10" guides="1" tooltips="1" connect="1" arrows="1" fold="1" page="1" pageScale="1" pageWidth="1100" pageHeight="850" background="#ffffff" math="0" shadow="0">
      <root>
        <mxCell id="0" />
        <mxCell id="1" parent="0" />
        <mxCell id="MiC8FaawFKK_ar2keSqU-50" value="" style="rounded=0;whiteSpace=wrap;html=1;" vertex="1" parent="1">
          <mxGeometry x="260" y="-10" width="600" height="630" as="geometry" />
        </mxCell>
        <mxCell id="677b7b8949515195-9" value="" style="line;strokeWidth=1;html=1;rounded=0;shadow=0;labelBackgroundColor=none;fillColor=none;fontFamily=Verdana;fontSize=14;fontColor=#000000;align=center;comic=1;" parent="1" vertex="1">
          <mxGeometry x="-20" y="-50" width="1060" height="10" as="geometry" />
        </mxCell>
        <mxCell id="677b7b8949515195-10" value="" style="whiteSpace=wrap;html=1;rounded=0;shadow=0;labelBackgroundColor=none;strokeWidth=1;fillColor=none;fontFamily=Verdana;fontSize=12;align=center;comic=1;" parent="1" vertex="1">
          <mxGeometry y="-110" width="1040" height="50" as="geometry" />
        </mxCell>
        <mxCell id="677b7b8949515195-26" value="FOOTER" style="whiteSpace=wrap;html=1;rounded=0;shadow=0;labelBackgroundColor=none;strokeWidth=1;fillColor=none;fontFamily=Verdana;fontSize=12;align=center;comic=1;" parent="1" vertex="1">
          <mxGeometry x="30" y="640" width="1040" height="180" as="geometry" />
        </mxCell>
        <mxCell id="MiC8FaawFKK_ar2keSqU-3" value="HOME" style="ellipse;whiteSpace=wrap;html=1;" vertex="1" parent="1">
          <mxGeometry x="260" y="-100" width="130" height="30" as="geometry" />
        </mxCell>
        <mxCell id="MiC8FaawFKK_ar2keSqU-4" value="AUTORI" style="ellipse;whiteSpace=wrap;html=1;" vertex="1" parent="1">
          <mxGeometry x="670" y="-100" width="130" height="30" as="geometry" />
        </mxCell>
        <mxCell id="MiC8FaawFKK_ar2keSqU-5" value="CATALOGO" style="ellipse;whiteSpace=wrap;html=1;labelBorderColor=none;labelBackgroundColor=none;" vertex="1" parent="1">
          <mxGeometry x="400" y="-100" width="130" height="30" as="geometry" />
        </mxCell>
        <mxCell id="MiC8FaawFKK_ar2keSqU-6" value="LOGIN" style="ellipse;whiteSpace=wrap;html=1;fillColor=#e1d5e7;strokeColor=#9673a6;" vertex="1" parent="1">
          <mxGeometry x="540" y="-100" width="130" height="30" as="geometry" />
        </mxCell>
        <mxCell id="MiC8FaawFKK_ar2keSqU-18" value="WEB-PAGE" style="swimlane;whiteSpace=wrap;html=1;startSize=60;" vertex="1" parent="1">
          <mxGeometry y="-510" width="1030" height="400" as="geometry" />
        </mxCell>
        <mxCell id="677b7b8949515195-2" value="logo img" style="whiteSpace=wrap;html=1;rounded=0;shadow=0;labelBackgroundColor=none;strokeWidth=1;fontFamily=Verdana;fontSize=28;align=center;comic=1;" parent="MiC8FaawFKK_ar2keSqU-18" vertex="1">
          <mxGeometry x="450" y="170" width="190" height="30" as="geometry" />
        </mxCell>
        <mxCell id="MiC8FaawFKK_ar2keSqU-20" value="ITEM-LOGIN" style="text;html=1;align=center;verticalAlign=middle;whiteSpace=wrap;rounded=0;fillColor=none;gradientColor=none;fontStyle=1" vertex="1" parent="1">
          <mxGeometry x="530" y="20" width="127.5" height="50" as="geometry" />
        </mxCell>
        <mxCell id="MiC8FaawFKK_ar2keSqU-47" value="REGISTRATI" style="rounded=1;whiteSpace=wrap;html=1;" vertex="1" parent="1">
          <mxGeometry x="660" y="80" width="140" height="30" as="geometry" />
        </mxCell>
        <mxCell id="MiC8FaawFKK_ar2keSqU-48" value="ACCEDI" style="rounded=1;whiteSpace=wrap;html=1;" vertex="1" parent="1">
          <mxGeometry x="380" y="80" width="140" height="30" as="geometry" />
        </mxCell>
        <mxCell id="MiC8FaawFKK_ar2keSqU-51" value="e-mail" style="text;html=1;align=center;verticalAlign=middle;whiteSpace=wrap;rounded=0;" vertex="1" parent="1">
          <mxGeometry x="410" y="140" width="60" height="30" as="geometry" />
        </mxCell>
        <mxCell id="MiC8FaawFKK_ar2keSqU-52" value="" style="rounded=1;whiteSpace=wrap;html=1;" vertex="1" parent="1">
          <mxGeometry x="380" y="180" width="120" height="10" as="geometry" />
        </mxCell>
        <mxCell id="MiC8FaawFKK_ar2keSqU-53" value="password" style="text;html=1;align=center;verticalAlign=middle;whiteSpace=wrap;rounded=0;" vertex="1" parent="1">
          <mxGeometry x="410" y="200" width="60" height="30" as="geometry" />
        </mxCell>
        <mxCell id="MiC8FaawFKK_ar2keSqU-54" value="" style="rounded=1;whiteSpace=wrap;html=1;" vertex="1" parent="1">
          <mxGeometry x="380" y="250" width="120" height="10" as="geometry" />
        </mxCell>
        <mxCell id="MiC8FaawFKK_ar2keSqU-56" value="" style="rounded=1;whiteSpace=wrap;html=1;" vertex="1" parent="1">
          <mxGeometry x="660" y="180" width="120" height="10" as="geometry" />
        </mxCell>
        <mxCell id="MiC8FaawFKK_ar2keSqU-57" value="" style="rounded=1;whiteSpace=wrap;html=1;" vertex="1" parent="1">
          <mxGeometry x="657.5" y="250" width="120" height="10" as="geometry" />
        </mxCell>
        <mxCell id="MiC8FaawFKK_ar2keSqU-58" value="" style="rounded=1;whiteSpace=wrap;html=1;" vertex="1" parent="1">
          <mxGeometry x="660" y="320" width="120" height="10" as="geometry" />
        </mxCell>
        <mxCell id="MiC8FaawFKK_ar2keSqU-59" value="" style="rounded=1;whiteSpace=wrap;html=1;" vertex="1" parent="1">
          <mxGeometry x="660" y="400" width="120" height="10" as="geometry" />
        </mxCell>
        <mxCell id="MiC8FaawFKK_ar2keSqU-60" value="nome" style="text;html=1;align=center;verticalAlign=middle;whiteSpace=wrap;rounded=0;" vertex="1" parent="1">
          <mxGeometry x="700" y="150" width="60" height="30" as="geometry" />
        </mxCell>
        <mxCell id="MiC8FaawFKK_ar2keSqU-61" value="cognome" style="text;html=1;align=center;verticalAlign=middle;whiteSpace=wrap;rounded=0;" vertex="1" parent="1">
          <mxGeometry x="697.5" y="200" width="60" height="30" as="geometry" />
        </mxCell>
        <mxCell id="MiC8FaawFKK_ar2keSqU-62" value="data" style="text;html=1;align=center;verticalAlign=middle;whiteSpace=wrap;rounded=0;" vertex="1" parent="1">
          <mxGeometry x="690" y="280" width="60" height="30" as="geometry" />
        </mxCell>
        <mxCell id="MiC8FaawFKK_ar2keSqU-66" value="e-mail" style="text;html=1;align=center;verticalAlign=middle;whiteSpace=wrap;rounded=0;" vertex="1" parent="1">
          <mxGeometry x="690" y="350" width="60" height="30" as="geometry" />
        </mxCell>
        <mxCell id="MiC8FaawFKK_ar2keSqU-68" value="password" style="text;html=1;align=center;verticalAlign=middle;whiteSpace=wrap;rounded=0;" vertex="1" parent="1">
          <mxGeometry x="687.5" y="420" width="60" height="30" as="geometry" />
        </mxCell>
        <mxCell id="MiC8FaawFKK_ar2keSqU-71" value="" style="rounded=1;whiteSpace=wrap;html=1;" vertex="1" parent="1">
          <mxGeometry x="657.5" y="460" width="120" height="10" as="geometry" />
        </mxCell>
        <mxCell id="MiC8FaawFKK_ar2keSqU-72" value="" style="rounded=1;whiteSpace=wrap;html=1;" vertex="1" parent="1">
          <mxGeometry x="657.5" y="510" width="120" height="10" as="geometry" />
        </mxCell>
        <mxCell id="MiC8FaawFKK_ar2keSqU-75" value="conferma" style="text;html=1;align=center;verticalAlign=middle;whiteSpace=wrap;rounded=0;" vertex="1" parent="1">
          <mxGeometry x="687.5" y="470" width="60" height="30" as="geometry" />
        </mxCell>
        <mxCell id="MiC8FaawFKK_ar2keSqU-76" value="INVIA" style="rounded=1;whiteSpace=wrap;html=1;" vertex="1" parent="1">
          <mxGeometry x="656.25" y="550" width="157.5" height="50" as="geometry" />
        </mxCell>
      </root>
    </mxGraphModel>
  </diagram>
</mxfile>
